<mxfile host="app.diagrams.net" modified="2024-07-07T19:36:41.451Z" agent="Mozilla/5.0 (Windows NT 10.0; Win64; x64) AppleWebKit/537.36 (KHTML, like Gecko) Chrome/126.0.0.0 Safari/537.36" version="24.6.4" etag="56WcBhxq7MA7sMmCFxNK" type="github">
  <diagram name="Page-1" id="i1F-pGJ24RHVNLZxyzWv">
    <mxGraphModel>
      <root>
        <mxCell id="0" />
        <mxCell id="1" parent="0" />
      </root>
    </mxGraphModel>
  </diagram>
</mxfile>
